HIERARCHY
ROOT Hips
{
	OFFSET 0.000000 0.000000 0.000000
	CHANNELS 6 Xposition Yposition Zposition Zrotation Yrotation Xrotation
	JOINT LHipJoint
	{
		OFFSET 0.000000 0.000000 0.000000
		CHANNELS 3 Zrotation Yrotation Xrotation
		JOINT LeftUpLeg
		{
			OFFSET 1.363060 -1.794630 0.839290
			CHANNELS 3 Zrotation Yrotation Xrotation
			JOINT LeftLeg
			{
				OFFSET 2.448110 -6.726130 0.000000
				CHANNELS 3 Zrotation Yrotation Xrotation
				JOINT LeftFoot
				{
					OFFSET 2.562200 -7.039590 0.000000
					CHANNELS 3 Zrotation Yrotation Xrotation
					JOINT LeftToeBase
					{
						OFFSET 0.157640 -0.433110 2.322550
						CHANNELS 3 Zrotation Yrotation Xrotation
						End Site
						{
							OFFSET 0.000000 0.000000 0.000000
						}
					}
				}
			}
		}
	}
	JOINT RHipJoint
	{
		OFFSET 0.000000 0.000000 0.000000
		CHANNELS 3 Zrotation Yrotation Xrotation
		JOINT RightUpLeg
		{
			OFFSET -1.305520 -1.794630 0.839290
			CHANNELS 3 Zrotation Yrotation Xrotation
			JOINT RightLeg
			{
				OFFSET -2.542530 -6.985550 0.000000
				CHANNELS 3 Zrotation Yrotation Xrotation
				JOINT RightFoot
				{
					OFFSET -2.568260 -7.056230 0.000000
					CHANNELS 3 Zrotation Yrotation Xrotation
					JOINT RightToeBase
					{
						OFFSET -0.164730 -0.452590 2.363150
						CHANNELS 3 Zrotation Yrotation Xrotation
						End Site
						{
							OFFSET 0.000000 0.000000 0.000000
						}
					}
				}
			}
		}
	}
	JOINT LowerBack
	{
		OFFSET 0.000000 0.000000 0.000000
		CHANNELS 3 Zrotation Yrotation Xrotation
		JOINT Spine
		{
			OFFSET 0.028270 2.035590 -0.193380
			CHANNELS 3 Zrotation Yrotation Xrotation
			JOINT Spine1
			{
				OFFSET 0.056720 2.048850 -0.042750
				CHANNELS 3 Zrotation Yrotation Xrotation
				JOINT Neck
				{
					OFFSET 0.000000 0.000000 0.000000
					CHANNELS 3 Zrotation Yrotation Xrotation
					JOINT Neck1
					{
						OFFSET -0.054170 1.746240 0.172020
						CHANNELS 3 Zrotation Yrotation Xrotation
						JOINT Head
						{
							OFFSET 0.104070 1.761360 -0.123970
							CHANNELS 3 Zrotation Yrotation Xrotation
							End Site
							{
								OFFSET 0.000000 0.000000 0.000000
							}
						}
					}
				}
				JOINT LeftShoulder
				{
					OFFSET 0.000000 0.000000 0.000000
					CHANNELS 3 Zrotation Yrotation Xrotation
					JOINT LeftArm
					{
						OFFSET 3.362410 1.200890 -0.311210
						CHANNELS 3 Zrotation Yrotation Xrotation
						JOINT LeftForeArm
						{
							OFFSET 4.983000 -0.000000 -0.000000
							CHANNELS 3 Zrotation Yrotation Xrotation
							JOINT LeftHand
							{
								OFFSET 3.483560 -0.000000 -0.000000
								CHANNELS 3 Zrotation Yrotation Xrotation
								JOINT LeftFingerBase
								{
									OFFSET 0.000000 0.000000 0.000000
									CHANNELS 3 Zrotation Yrotation Xrotation
									JOINT LeftHandIndex1
									{
										OFFSET 0.715260 -0.000000 -0.000000
										CHANNELS 3 Zrotation Yrotation Xrotation
										End Site
										{
											OFFSET 0.000000 0.000000 0.000000
										}
									}
								}
								JOINT LThumb
								{
									OFFSET 0.000000 0.000000 0.000000
									CHANNELS 3 Zrotation Yrotation Xrotation
									End Site
									{
										OFFSET 0.000000 0.000000 0.000000
									}
								}
							}
						}
					}
				}
				JOINT RightShoulder
				{
					OFFSET 0.000000 0.000000 0.000000
					CHANNELS 3 Zrotation Yrotation Xrotation
					JOINT RightArm
					{
						OFFSET -3.136600 1.374050 -0.404650
						CHANNELS 3 Zrotation Yrotation Xrotation
						JOINT RightForeArm
						{
							OFFSET -5.241900 -0.000000 -0.000000
							CHANNELS 3 Zrotation Yrotation Xrotation
							JOINT RightHand
							{
								OFFSET -3.444170 -0.000000 -0.000000
								CHANNELS 3 Zrotation Yrotation Xrotation
								JOINT RightFingerBase
								{
									OFFSET 0.000000 0.000000 0.000000
									CHANNELS 3 Zrotation Yrotation Xrotation
									JOINT RightHandIndex1
									{
										OFFSET -0.622530 -0.000000 -0.000000
										CHANNELS 3 Zrotation Yrotation Xrotation
										End Site
										{
											OFFSET 0.000000 0.000000 0.000000
										}
									}
								}
								JOINT RThumb
								{
									OFFSET 0.000000 0.000000 0.000000
									CHANNELS 3 Zrotation Yrotation Xrotation
									End Site
									{
										OFFSET 0.000000 0.000000 0.000000
									}
								}
							}
						}
					}
				}
			}
		}
	}
}
MOTION
Frames: 4
Frame Time: 0.008333
0.455656 -1.114843 9.970339 4.849699 11.247476 -0.913764 -10.863833 2.480566 7.995746 -12.772960 2.738433 39.813225 -0.210057 -5.943397 2.060374 -1.412091 -12.850486 -4.322997 -0.054159 -2.344945 -6.537983 3.348564 3.310070 -6.738336 -21.449577 8.833166 -24.690691 1.411570 -3.047914 -12.701888 1.203402 -1.928292 -15.558821 -1.384131 -2.384742 16.614891 0.987021 -5.671655 -6.855637 1.255887 -8.335607 -1.824940 -1.108994 -6.291560 -0.258526 -1.429787 0.081727 1.831322 -1.478027 4.761587 4.506292 -1.835678 -1.081165 0.924074 1.378346 -2.402834 -0.085770 7.009537 -43.397358 25.557487 13.384063 -29.016539 -7.277764 0.799298 -0.621347 -27.171505 24.541660 12.540388 -7.266900 -0.203526 0.000000 0.000000 0.488297 -8.149963 6.753937 3.636777 -0.800523 -0.686243 11.767001 -29.625246 -36.519775 14.026977 -9.222679 3.711014 -0.469582 -0.020784 11.640532 -44.464520 -14.433663 -7.137435 -1.141613 0.000000 0.000000 -2.428764 -14.360764 6.309620
0.482968 -1.134854 10.014574 4.827219 11.332884 -0.887792 -10.857422 2.491098 7.967592 -12.814803 2.755542 40.188747 -0.108770 -5.786269 2.383098 -1.534675 -12.460917 -4.425766 -0.058596 -2.328650 -6.844490 3.403399 3.270375 -6.721243 -21.359917 8.731730 -24.515587 1.246766 -3.249362 -12.207873 1.184531 -1.475547 -15.971350 -1.329595 -2.369049 16.738554 1.224348 -5.681566 -6.798618 1.298285 -8.258128 -1.792331 -1.090493 -6.235493 -0.218850 -1.469650 0.047299 1.688274 -1.449638 4.665164 4.459273 -2.063975 -1.158240 0.764631 1.225622 -2.606404 -0.120523 6.469011 -43.424294 26.961327 13.628739 -28.874708 -7.273265 0.827835 -0.632025 -27.099537 24.673138 12.480260 -7.254188 -0.220819 0.000000 0.000000 0.427789 -8.522425 6.899313 3.726047 -0.747897 -0.696474 11.954653 -29.581678 -36.614151 14.016430 -9.111134 3.754502 -0.474312 0.000175 11.667216 -43.688641 -14.256068 -6.304770 -1.142751 0.000000 0.000000 -2.436149 -14.330055 5.744884
0.527414 -1.132105 10.138453 4.827872 11.442855 -0.861509 -10.828320 2.507744 7.946598 -12.837153 2.793588 40.559181 -0.011463 -5.607953 2.716534 -1.656964 -12.062764 -4.488599 -0.050934 -2.297801 -7.068332 3.515372 3.245042 -6.665636 -21.151270 8.722235 -24.174738 1.093493 -3.428449 -11.646221 1.189716 -0.970675 -16.286135 -1.259612 -2.325270 16.941998 1.475343 -5.708282 -6.795381 1.327606 -8.209757 -1.821912 -1.117065 -6.179591 -0.186457 -1.524754 -0.001955 1.585842 -1.418609 4.632681 4.487419 -2.233635 -1.205836 0.688557 1.174132 -2.677584 -0.139532 5.857220 -43.434814 26.887024 13.585481 -29.194489 -7.373395 0.832171 -0.679391 -27.384304 24.607204 12.409265 -7.288613 -0.248034 0.000000 0.000000 0.140365 -9.127360 6.791161 3.769950 -0.722975 -0.717535 11.984761 -29.555807 -36.751392 13.932974 -9.106490 3.760922 -0.485066 0.018541 11.677489 -43.131512 -14.225513 -5.649130 -1.153391 0.000000 0.000000 -2.886169 -14.522941 5.334447
0.583717 -1.131962 10.272636 4.832057 11.551696 -0.841075 -10.799764 2.517871 7.919021 -12.874701 2.818044 40.834579 0.070486 -5.440907 3.026942 -1.773430 -11.687639 -4.634562 -0.058011 -2.322056 -7.432503 3.570169 3.194438 -6.652768 -21.076204 8.638268 -23.970972 0.914624 -3.655102 -11.230808 1.165163 -0.706856 -16.877676 -1.218798 -2.352781 16.945084 1.672404 -5.762609 -6.870591 1.339472 -8.185508 -1.876027 -1.160537 -6.128472 -0.176331 -1.603969 -0.065810 1.471331 -1.398870 4.580135 4.486516 -2.407451 -1.268381 0.591352 1.090446 -2.798037 -0.173308 4.846135 -43.572098 26.192656 13.420919 -29.590868 -7.488099 0.835014 -0.730410 -27.690823 24.535383 12.363429 -7.292086 -0.275733 0.000000 0.000000 -0.111637 -9.645210 6.749810 3.823112 -0.688548 -0.735960 12.061818 -29.492222 -36.829552 13.885164 -9.083865 3.822936 -0.490382 0.039415 11.695185 -42.812111 -14.248790 -4.879915 -1.161761 0.000000 0.000000 -3.266105 -14.639564 5.228697
